<?xml version="1.0" encoding="UTF-8" standalone="no"?>
<!DOCTYPE svg PUBLIC "-//W3C//DTD SVG 1.1//EN" "http://www.w3.org/Graphics/SVG/1.1/DTD/svg11.dtd">
<svg xmlns="http://www.w3.org/2000/svg" xmlns:xlink="http://www.w3.org/1999/xlink" version="1.1" width="223pt" height="156pt" viewBox="0 0 223 156">
<g enable-background="new">
<path transform="matrix(1,0,0,-1,-142,726)" d="M 0 0 L 612 0 L 612 792 L 0 792 Z " fill="#ffffff"/>
<path transform="matrix(1,0,0,-1,105.343997,130.021)" stroke-width=".59776" stroke-linecap="butt" stroke-miterlimit="10" stroke-linejoin="miter" fill="none" stroke="#000000" d="M -82.09494 0 C -82.09494 1.62674 -83.41368 2.94547 -85.04042 2.94547 C -86.66718 2.94547 -87.9859 1.62674 -87.9859 0 C -87.9859 -1.62674 -86.66718 -2.94547 -85.04042 -2.94547 C -83.41368 -2.94547 -82.09494 -1.62674 -82.09494 0 Z M -85.04042 0 "/>
<text xml:space="preserve" transform="matrix(1 0 -0 1 -142.00002 726)" font-size="10.9091" font-family="CMSY10" font-style="italic"><tspan y="-582.395" x="143.238">V</tspan></text>
<text xml:space="preserve" transform="matrix(1 0 -0 1 -142.00002 726)" font-size="7.9701" font-family="NimbusRomNo9L"><tspan y="-580.75906" x="149.923">X</tspan></text>
<path transform="matrix(1,0,0,-1,105.343997,130.021)" stroke-width=".59776" stroke-linecap="butt" stroke-miterlimit="10" stroke-linejoin="miter" fill="none" stroke="#000000" d="M 2.94547 70.867 C 2.94547 72.49376 1.62674 73.81248 0 73.81248 C -1.62674 73.81248 -2.94547 72.49376 -2.94547 70.867 C -2.94547 69.24026 -1.62674 67.92154 0 67.92154 C 1.62674 67.92154 2.94547 69.24026 2.94547 70.867 Z M 0 70.867 "/>
<text xml:space="preserve" transform="matrix(1 0 -0 1 -142 726)" font-size="10.9091" font-family="CMSY10" font-style="italic"><tspan y="-674.61" x="224.284">V</tspan></text>
<text xml:space="preserve" transform="matrix(1 0 -0 1 -142 726)" font-size="7.9701" font-family="NimbusRomNo9L"><tspan y="-672.974" x="230.969 236.28505">BP</tspan></text>
<path transform="matrix(1,0,0,-1,105.343997,130.021)" stroke-width=".59776" stroke-linecap="butt" stroke-miterlimit="10" stroke-linejoin="miter" fill="none" stroke="#000000" d="M 87.9859 0 C 87.9859 1.62674 86.66718 2.94547 85.04042 2.94547 C 83.41368 2.94547 82.09494 1.62674 82.09494 0 C 82.09494 -1.62674 83.41368 -2.94547 85.04042 -2.94547 C 86.66718 -2.94547 87.9859 -1.62674 87.9859 0 Z M 85.04042 0 "/>
<text xml:space="preserve" transform="matrix(1 0 -0 1 -142 726)" font-size="10.9091" font-family="CMSY10" font-style="italic"><tspan y="-582.395" x="338.513">V</tspan></text>
<text xml:space="preserve" transform="matrix(1 0 -0 1 -142 726)" font-size="7.9701" font-family="StandardSymL"><tspan y="-580.684" x="345.198">&#x2206;</tspan></text>
<text xml:space="preserve" transform="matrix(1 0 -0 1 -142 726)" font-size="7.9701" font-family="NimbusRomNo9L"><tspan y="-580.684" x="350.075 355.39109 362.4765">BMI</tspan></text>
<path transform="matrix(1,0,0,-1,105.343997,130.021)" stroke-width=".59776" stroke-linecap="butt" stroke-miterlimit="10" stroke-linejoin="miter" fill="none" stroke="#000000" d="M 2.94547 113.38724 C 2.94547 115.01398 1.62674 116.3327 0 116.3327 C -1.62674 116.3327 -2.94547 115.01398 -2.94547 113.38724 C -2.94547 111.76048 -1.62674 110.44176 0 110.44176 C 1.62674 110.44176 2.94547 111.76048 2.94547 113.38724 Z M 0 113.38724 "/>
<text xml:space="preserve" transform="matrix(1 0 -0 1 -142.00002 726)" font-size="10.9091" font-family="CMSY10" font-style="italic"><tspan y="-717.13" x="253.473">V</tspan></text>
<text xml:space="preserve" transform="matrix(1 0 -0 1 -142.00002 726)" font-size="7.9701" font-family="NimbusRomNo9L"><tspan y="-715.494" x="260.15803">Y</tspan></text>
<path transform="matrix(1,0,0,-1,105.343997,130.021)" stroke-width=".99628" stroke-linecap="butt" stroke-miterlimit="10" stroke-linejoin="miter" fill="none" stroke="#0000ff" d="M 0 121.89136 L 0 117.46349 "/>
<path transform="matrix(0,1,1,0,105.343997,12.557503)" stroke-width=".79701" stroke-linecap="round" stroke-linejoin="round" fill="none" stroke="#0000ff" d="M -1.73352 2.31136 C -1.58905 1.4446 0 .14444 .43336 0 C 0 -.14444 -1.58905 -1.4446 -1.73352 -2.31136 "/>
<path transform="matrix(1,0,0,-1,105.343997,130.021)" stroke-width=".99628" stroke-linecap="butt" stroke-miterlimit="10" stroke-linejoin="miter" fill="none" stroke="#0000ff" d="M -93.54454 0 L -89.11668 0 "/>
<path transform="matrix(1,0,0,-1,16.227318,130.021)" stroke-width=".79701" stroke-linecap="round" stroke-linejoin="round" fill="none" stroke="#0000ff" d="M -1.73352 2.31136 C -1.58905 1.4446 0 .14444 .43336 0 C 0 -.14444 -1.58905 -1.4446 -1.73352 -2.31136 "/>
<path transform="matrix(1,0,0,-1,105.343997,130.021)" stroke-width=".99628" stroke-linecap="butt" stroke-miterlimit="10" stroke-linejoin="miter" fill="none" stroke="#0000ff" d="M 93.54454 0 L 89.11668 0 "/>
<path transform="matrix(-1,-0,0,1,194.46067,130.021)" stroke-width=".79701" stroke-linecap="round" stroke-linejoin="round" fill="none" stroke="#0000ff" d="M -1.73352 2.31136 C -1.58905 1.4446 0 .14444 .43336 0 C 0 -.14444 -1.58905 -1.4446 -1.73352 -2.31136 "/>
<path transform="matrix(1,0,0,-1,105.343997,130.021)" stroke-width=".99628" stroke-linecap="butt" stroke-miterlimit="10" stroke-linejoin="miter" fill="none" stroke="#0000ff" d="M 7.65375 75.11885 L 3.56323 72.84651 "/>
<path transform="matrix(-.87416,.4856,.4856,.87416,108.90724,57.174486)" stroke-width=".79701" stroke-linecap="round" stroke-linejoin="round" fill="none" stroke="#0000ff" d="M -1.73352 2.31136 C -1.58905 1.4446 0 .14444 .43336 0 C 0 -.14444 -1.58905 -1.4446 -1.73352 -2.31136 "/>
<path transform="matrix(1,0,0,-1,105.343997,130.021)" stroke-width=".69739" stroke-linecap="butt" stroke-miterlimit="10" stroke-linejoin="miter" fill="none" stroke="#000000" d="M -82.54814 2.07687 L -2.98781 68.37718 "/>
<path transform="matrix(.76819,-.64015,-.64015,-.76819,102.356189,61.643815)" stroke-width=".5579" stroke-linecap="round" stroke-linejoin="round" fill="none" stroke="#000000" d="M -1.4645 1.95265 C -1.34245 1.22041 0 .12204 .36612 0 C 0 -.12204 -1.34245 -1.22041 -1.4645 -1.95265 "/>
<path transform="matrix(1,0,0,-1,105.343997,130.021)" stroke-width=".69739" stroke-linecap="butt" stroke-miterlimit="10" stroke-linejoin="miter" fill="none" stroke="#000000" d="M 2.49226 68.79013 L 82.05261 2.48982 "/>
<path transform="matrix(.76819,.64015,.64015,-.76819,187.3966,127.53117)" stroke-width=".5579" stroke-linecap="round" stroke-linejoin="round" fill="none" stroke="#000000" d="M -1.4645 1.95265 C -1.34245 1.22041 0 .12204 .36612 0 C 0 -.12204 -1.34245 -1.22041 -1.4645 -1.95265 "/>
<path transform="matrix(1,0,0,-1,105.343997,130.021)" stroke-width=".69739" stroke-linecap="butt" stroke-miterlimit="10" stroke-linejoin="miter" fill="none" stroke="#000000" d="M 85.21754 3.2394 C 88.1381 56.64796 55.24966 100.50067 3.78764 112.50386 "/>
<path transform="matrix(-.97383,-.22713,-.22713,.97383,109.13165,17.517144)" stroke-width=".5579" stroke-linecap="round" stroke-linejoin="round" fill="none" stroke="#000000" d="M -1.4645 1.95265 C -1.34245 1.22041 0 .12204 .36612 0 C 0 -.12204 -1.34245 -1.22041 -1.4645 -1.95265 "/>
<path transform="matrix(1,0,0,-1,105.343997,130.021)" stroke-width=".69739" stroke-linecap="butt" stroke-miterlimit="10" stroke-linejoin="miter" fill="none" stroke="#000000" d="M -82.23077 -1.62212 C -26.68784 -33.68976 26.68784 -33.68976 81.67213 -1.94464 "/>
<path transform="matrix(.86601,-.49998,-.49998,-.86601,187.01612,131.96566)" stroke-width=".5579" stroke-linecap="round" stroke-linejoin="round" fill="none" stroke="#000000" d="M -1.4645 1.95265 C -1.34245 1.22041 0 .12204 .36612 0 C 0 -.12204 -1.34245 -1.22041 -1.4645 -1.95265 "/>
<path transform="matrix(1,0,0,-1,105.343997,130.021)" stroke-width=".69739" stroke-linecap="butt" stroke-miterlimit="10" stroke-linejoin="miter" fill="none" stroke="#000000" d="M -85.21754 3.2394 C -88.1381 56.64796 -55.24966 100.50067 -3.78764 112.50386 "/>
<path transform="matrix(.97383,-.22713,-.22713,-.97383,101.556339,17.517144)" stroke-width=".5579" stroke-linecap="round" stroke-linejoin="round" fill="none" stroke="#000000" d="M -1.4645 1.95265 C -1.34245 1.22041 0 .12204 .36612 0 C 0 -.12204 -1.34245 -1.22041 -1.4645 -1.95265 "/>
<path transform="matrix(1,0,0,-1,105.343997,130.021)" stroke-width=".69739" stroke-linecap="butt" stroke-miterlimit="10" stroke-linejoin="miter" fill="none" stroke="#00ff00" d="M 0 74.75645 L 0 109.49779 "/>
<path transform="matrix(0,1,1,0,105.343997,55.26455)" stroke-width=".5579" stroke-linecap="round" stroke-linejoin="round" fill="none" stroke="#00ff00" d="M -1.4645 1.95265 C -1.34245 1.22041 0 .12204 .36612 0 C 0 -.12204 -1.34245 -1.22041 -1.4645 -1.95265 "/>
<path transform="matrix(0,-1,-1,-0,105.343997,20.523209)" stroke-width=".5579" stroke-linecap="round" stroke-linejoin="round" fill="none" stroke="#00ff00" d="M -1.4645 1.95265 C -1.34245 1.22041 0 .12204 .36612 0 C 0 -.12204 -1.34245 -1.22041 -1.4645 -1.95265 "/>
<path transform="matrix(1,0,0,-1,105.343997,130.021)" stroke-width=".69739" stroke-linecap="butt" stroke-miterlimit="10" stroke-linejoin="miter" fill="none" stroke="#ff0000" d="M 0 11.33855 L -81.1853 .51395 "/>
<path transform="matrix(-.99118,.13214,.13214,.99118,24.158707,129.50704)" stroke-width=".5579" stroke-linecap="round" stroke-linejoin="round" fill="none" stroke="#ff0000" d="M -1.4645 1.95265 C -1.34245 1.22041 0 .12204 .36612 0 C 0 -.12204 -1.34245 -1.22041 -1.4645 -1.95265 "/>
<path transform="matrix(1,0,0,-1,105.343997,130.021)" stroke-width=".69739" stroke-linecap="butt" stroke-miterlimit="10" stroke-linejoin="miter" fill="none" stroke="#ff0000" d="M 0 11.33855 L 81.1853 .51395 "/>
<path transform="matrix(.99118,.13214,.13214,-.99118,186.52928,129.50704)" stroke-width=".5579" stroke-linecap="round" stroke-linejoin="round" fill="none" stroke="#ff0000" d="M -1.4645 1.95265 C -1.34245 1.22041 0 .12204 .36612 0 C 0 -.12204 -1.34245 -1.22041 -1.4645 -1.95265 "/>
<path transform="matrix(1,0,0,-1,105.343997,130.021)" stroke-width=".69739" stroke-linecap="butt" stroke-miterlimit="10" stroke-linejoin="miter" fill="none" stroke="#ff0000" d="M 0 11.33855 L 0 66.97757 "/>
<path transform="matrix(0,-1,-1,-0,105.343997,63.043428)" stroke-width=".5579" stroke-linecap="round" stroke-linejoin="round" fill="none" stroke="#ff0000" d="M -1.4645 1.95265 C -1.34245 1.22041 0 .12204 .36612 0 C 0 -.12204 -1.34245 -1.22041 -1.4645 -1.95265 "/>
</g>
</svg>
